# xmcd
#
# Track frame offsets:
#	150
#	19908
#	31557
#	56266
#	73490
#	89022
#	111533
#	125823
#	137192
#	155191
#	169960
#	190315
#	209560
#	229285
#	248513
#	267166
#	290298
#
# Disc length: 4210 seconds
#
# Revision: 1
# Processed by: cddbd v1.4PL0 Copyright (c) Steve Scherf et al.
# Submitted via: EasyCDDAExtractor 5.0.7
#
DISCID=0b107011
DTITLE=Big Joe Stolle - Bluesmaschine Life
DYEAR=1999
DGENRE=Blues
TTITLE0=Everyday i have the Blues (By P. Catman)
TTITLE1=I feel good (By James Brown)
TTITLE2=Ain´t no Suneshine when she´s gone (By Bill Withers)
TTITLE3=Sittin´on the Dock of the By (By Ottis Redding)
TTITLE4=Let the good Time roll (By Louis Jordan)
TTITLE5=Hoochie Coochie Man (By Willie Dixon)
TTITLE6=It´s Over (By John Mayall)
TTITLE7=Bullfrog Blues (By Canned Heat)
TTITLE8=Little Red Rooster (By Willie Dixon)
TTITLE9=I Can´t Stop Loving You (By Don Gibson)
TTITLE10=Treat Me Right (By T-Bone Walker)
TTITLE11=Stand By Me (By Ben E. King)
TTITLE12=Sweet Home Chicago (By Woody Peyne)
TTITLE13=Early in the Morning (By Louis Jordan)
TTITLE14=Talk To Me Baby (By E. James)
TTITLE15=Geogia on My Mind (By Stuart Dorrell and Hoagy Carmichael)
TTITLE16=Caledonia (By Fleecie Moore)
EXTD=
EXTT0=
EXTT1=
EXTT2=
EXTT3=
EXTT4=
EXTT5=
EXTT6=
EXTT7=
EXTT8=
EXTT9=
EXTT10=
EXTT11=
EXTT12=
EXTT13=
EXTT14=
EXTT15=
EXTT16=
PLAYORDER=
